<svg width="134" height="131" viewBox="0 0 134 131" fill="none" xmlns="http://www.w3.org/2000/svg">
<path d="M127.498 2.04114C125.75 2.66829 122.983 3.77161 121.362 4.48005C117.414 6.21052 111.752 8.82364 111.752 8.91656C111.752 8.9514 112.586 9.3695 113.605 9.84567C114.612 10.3218 115.446 10.7399 115.457 10.7748C115.457 10.8096 113.408 10.8793 110.919 10.9258L106.369 11.0187L103.417 12.3543C101.796 13.0859 99.0636 14.2009 97.3386 14.828C95.1736 15.6178 93.2865 16.4075 91.2141 17.3947L88.2271 18.8232L88.2966 19.4039C88.3313 19.7175 88.4008 20.0194 88.4471 20.0659C88.5397 20.1472 95.1852 22.3538 97.6975 23.1319L99.0983 23.5617L101.923 21.8776C104.818 20.1588 110.247 17.1043 110.294 17.174C110.375 17.2785 105.003 22.1448 102.572 24.1656C100.094 26.2328 94.7915 31.1223 94.7915 31.343C94.7915 31.401 95.5556 31.8888 96.505 32.4463L98.2069 33.4683L99.2373 35.1871L100.256 36.8944L102.537 34.2232C103.799 32.7598 106.08 30.2629 107.619 28.6834C109.159 27.0923 111.324 24.7695 112.436 23.5036C113.535 22.2493 114.473 21.2157 114.496 21.2157C114.531 21.2157 114.45 21.3899 114.323 21.5873C114.195 21.7963 113.524 23.0158 112.806 24.3049C111.903 25.9425 110.942 27.4523 109.553 29.4034C108.476 30.9249 107.585 32.2256 107.585 32.3069C107.585 32.4811 108.719 36.1395 110.907 42.9684L111.081 43.5259L111.891 43.4911L112.702 43.4562L113.975 40.5528C114.67 38.95 115.99 35.9653 116.928 33.898L118.618 30.1467L118.467 27.7659C118.386 26.4651 118.34 25.3734 118.363 25.3386C118.386 25.3153 118.699 25.7102 119.046 26.2096C119.394 26.709 119.718 27.0807 119.764 27.0458C119.799 26.9994 120.308 25.7567 120.875 24.2933C121.443 22.8184 122.89 19.4271 124.082 16.7443C127.521 9.03269 130.855 1.26301 130.855 0.972662C130.855 0.84491 130.844 0.84491 127.498 2.04114ZM5.9927 2.43601C6.02743 2.95864 6.10847 4.79363 6.16636 6.5241C6.27055 9.24174 6.37475 10.2173 6.87258 13.8408C7.19675 16.1404 7.81035 19.9846 8.26187 22.377C9.00283 26.4303 9.1186 26.9297 9.97533 29.6009L10.9015 32.4811L12.9044 34.8852C13.9927 36.2208 15.9609 38.4739 17.2691 39.9024C20.013 42.8871 23.1389 45.6977 27.9898 49.5535C29.5875 50.8194 31.7409 52.5963 32.7944 53.5138C33.848 54.4313 36.2445 56.5102 38.12 58.1246C41.3965 60.9351 41.547 61.0512 41.9406 61.0048C42.1606 60.9699 43.0752 60.9119 43.9666 60.8654L45.5875 60.7957L46.1548 63.6644L46.7221 66.533L49.3386 68.9835C50.7742 70.3307 53.3328 72.5722 55.0231 73.9891C56.7134 75.3944 59.2488 77.5546 60.6729 78.7856C62.0969 80.0283 64.6439 82.1421 66.3458 83.4893C68.9276 85.5333 69.8653 86.3579 72.0651 88.5529C73.6512 90.144 74.7394 91.1428 74.7973 91.0731C74.8552 91.0034 75.6193 90.0976 76.4876 89.0407C77.3675 87.9838 79.0462 86.1837 80.2156 85.0339L82.3458 82.9434L79.984 80.2141C78.6294 78.6463 76.6034 76.4745 75.2141 75.104C73.8827 73.8033 71.5672 71.4689 70.0737 69.9243C68.5802 68.3796 66.149 65.9988 64.6787 64.6283C62.7221 62.8282 61.3444 61.4113 59.5614 59.4021C57.7785 57.3813 56.3892 55.9644 54.3169 54.0365C52.7539 52.5963 50.4847 50.32 49.2344 48.9612C47.602 47.1959 45.4833 45.1286 41.5933 41.5051C38.6295 38.7642 34.8899 35.1755 33.2807 33.538L30.3516 30.5648L28.4876 27.7775C27.052 25.6405 26.2416 24.2817 25.026 21.9706C24.1577 20.3098 23.463 18.9393 23.4746 18.9161C23.4978 18.8929 24.8523 19.5549 26.4963 20.3911C29.217 21.7615 29.7611 22.0867 32.2734 23.8636L35.052 25.8147L37.8538 29.0666C40.424 32.0398 40.8755 32.4927 43.2373 34.5716C45.2286 36.3137 46.3863 37.4519 48.3082 39.554C50.5658 42.0161 51.052 42.4807 53.6106 44.5944C56.0303 46.592 56.7713 47.2772 58.9594 49.6116C60.3603 51.0865 62.6873 53.4209 64.1229 54.7914C65.8017 56.3825 67.5499 58.1826 68.9507 59.7737C76.3024 68.1125 76.3603 68.1706 79.4978 70.7953C81.0954 72.1193 83.4804 74.2678 84.8002 75.557C86.12 76.8345 87.2431 77.8914 87.3009 77.8914C87.3472 77.8914 88.2271 76.9971 89.2459 75.9054C90.2532 74.8021 92.1866 72.9206 93.518 71.7012C94.861 70.4933 95.9609 69.4713 95.984 69.4249C95.9956 69.39 94.9884 68.1822 93.738 66.742C92.4876 65.3019 90.2995 62.712 88.8755 60.9932C85.6569 57.0793 82.0101 53.177 78.7221 50.1226C76.0593 47.6488 73.547 45.0009 69.0433 39.914C67.5383 38.2184 65.1533 35.6052 63.7293 34.1071L61.1475 31.3778L59.5035 30.7971L57.8711 30.2164L56.2966 26.8135L54.7336 23.4223L52.7655 21.3318C51.6888 20.182 49.6975 18.196 48.3429 16.9185C45.9695 14.6654 45.8306 14.5144 44.0708 12.0988L42.2648 9.59016L39.5209 7.96422C37.1939 6.57055 36.3603 6.15245 33.8943 5.1072L30.9999 3.87613L26.8321 3.77161C22.6758 3.66708 22.6526 3.66708 18.2069 3.03993C15.7525 2.69152 12.1403 2.22696 10.1606 1.99468C8.19241 1.77402 6.42106 1.56497 6.2474 1.53013L5.92323 1.47206L5.9927 2.43601ZM87.4399 39.9721C81.1649 46.2668 81.1302 46.3016 81.3617 46.5223C81.4891 46.65 82.5542 47.5095 83.7351 48.4386L85.8769 50.1226L91.9319 44.0601C97.929 38.0558 97.9869 37.9977 97.9174 37.6028C97.8132 37.0221 97.3386 36.0117 96.8639 35.373C96.2271 34.4903 95.3009 33.9328 94.1548 33.7122L93.7496 33.6425L87.4399 39.9721ZM107.469 60.8422C107.469 60.9119 106.577 63.165 105.477 65.8478L103.486 70.714L99.3067 74.8834C97.0144 77.1829 90.8668 83.3151 85.6454 88.5181L76.1519 97.9718L71.382 99.9693L66.6005 101.967V114.882H73.026C78.2937 114.893 79.4514 114.858 79.4514 114.731C79.4514 114.649 80.3429 112.396 81.4196 109.737L83.3878 104.894L84.0593 104.255C84.4182 103.906 86.0853 102.304 87.7525 100.678C89.4312 99.0519 90.8436 97.7511 90.9015 97.7743C91.1562 97.8672 95.4051 101.793 98.0911 104.417C100.453 106.717 101.634 107.774 103.996 109.644C106.797 111.862 109.275 113.871 112.181 116.298L113.477 117.379L115.724 114.905C116.951 113.558 119.069 111.316 120.401 109.946L122.844 107.437L120.493 104.325C117.669 100.596 115.029 97.6234 108.013 90.3414C105.35 87.5773 103.185 85.2778 103.208 85.2313C103.231 85.1849 104.968 83.4428 107.064 81.3755L110.884 77.601L115.585 75.6383L120.285 73.6871L120.366 70.3424C120.412 68.5074 120.412 65.6039 120.366 63.885L120.285 60.7609L113.871 60.7377C109.182 60.7144 107.469 60.7377 107.469 60.8422ZM38.0043 89.482C31.5325 95.9161 22.5368 104.87 17.9869 109.377L9.7322 117.576L11.9666 119.62L14.2011 121.652L20.2908 115.602C23.6483 112.268 32.6208 103.349 40.2387 95.7884L54.0853 82.0259L53.4949 81.1665C52.7423 80.0864 51.4804 78.8089 50.5889 78.2282C50.2069 77.9727 49.8596 77.7752 49.8248 77.7752C49.7901 77.7868 44.4645 83.0479 38.0043 89.482ZM16.8639 93.1985C14.8957 94.8244 13.2749 96.1948 13.2517 96.2297C13.2402 96.2761 13.6569 96.4852 14.1779 96.6942C14.7105 96.9149 15.1852 97.1239 15.2431 97.182C15.3009 97.2285 15.0347 97.635 14.6179 98.0879L13.9001 98.9125H10.1606L5.50644 103.477C2.95941 105.974 0.875474 108.053 0.898629 108.076C0.921783 108.099 3.89718 108.366 7.50934 108.668L14.0737 109.226L22.6179 100.852C27.3299 96.2413 31.1736 92.4436 31.1736 92.3971C31.1736 92.3623 30.4326 92.1997 29.5296 92.0255C28.615 91.8513 26.1953 91.3867 24.1577 90.9802L20.4297 90.2485L16.8639 93.1985ZM31.3241 108.436L22.9652 117.019L23.4978 123.557C23.7872 127.157 24.0651 130.131 24.0998 130.177C24.1461 130.223 24.7829 129.62 25.5354 128.83L26.8899 127.39L27.2257 125.195C27.5846 122.767 27.5499 122.791 28.1056 124.66C28.2908 125.253 28.4645 125.741 28.5108 125.741C28.5571 125.741 29.6338 124.66 30.9073 123.336L33.2228 120.921L33.8248 117.471C34.149 115.578 34.4153 113.952 34.4153 113.871C34.4268 113.604 34.6121 114.034 34.6931 114.51C34.7973 115.079 35.8046 117.843 35.9088 117.831C36.0361 117.831 41.7669 110.782 41.8017 110.584C41.848 110.375 39.8567 100.062 39.7409 99.9345C39.7062 99.8881 35.9203 103.709 31.3241 108.436ZM124.372 111.246C122.299 113.232 120.586 114.951 120.551 115.067C120.517 115.184 118.965 117.042 117.101 119.179L113.721 123.081L115.006 125.45C116.233 127.715 116.302 127.819 116.592 127.761C116.765 127.738 117.97 127.552 119.278 127.366C120.586 127.169 122.936 126.797 124.499 126.53L127.347 126.054L129.477 124.266C130.647 123.278 131.724 122.361 131.862 122.222C132.094 121.989 132.129 121.757 132.291 119.004C132.441 116.717 132.58 115.416 132.939 113.325C133.194 111.827 133.368 110.561 133.321 110.515C133.148 110.341 128.366 107.623 128.25 107.623C128.192 107.635 126.444 109.26 124.372 111.246Z" fill="black"/>
</svg>
