<svg xmlns="http://www.w3.org/2000/svg" viewBox="0 0 367.23 115.04" stroke="#794634" fill="#794634" preserveAspectRatio="none" >
	<path
		d="M94.35 28.6c-.5.15-.22.07 1.16-.35l.97-.32-2.14.67Zm9.33-2.68c1.62-.5 3.49-1.1 2.4-.91-1.61.53-1.97.65-3.7 1.23-1.39.4-2.43.67-2.2.59-.49.15-2.12.65-2.89.89 1.8-.53 4.1-1.15 6.48-1.88.52-.13.03.04-.09.08Zm139.53-13.38-.9-.18c.24.08.55.14.9.18Zm84.06 19.58c-.61-.24-.91-.24-.98-.14.59.17 1.07.31.98.14Zm12.21 7.95c-.25-.19-.46-.34-.68-.51.22.27.46.49.68.51Zm-96.27-27.53 2.3.48c.19-.3-1.17-.33-2.3-.48Zm-120.8 8.04c-.47.13-.86.24-1.22.36.39-.1.76-.2 1.15-.31a.21.21 0 0 1 .07-.05Zm82.44-8.39h-.71c-.21.1-.4.21-.58.33l1.28-.33Zm-29.41 1.67c.67-.03.85-.56 1.08-.8-.35.24-.84.38-1.41.47 0 .1.1.2.33.33Zm-46.38 6.13-.81.2c.21-.05.56-.14.81-.2Zm96.85-7.5c.05.11.15.21.26.27 0-.09-.1-.18-.26-.27Zm49.19-7.46v.04c.17 0 .23-.01 0-.04Zm33.9 5.3-.47-.07s-.07 0-.1-.01l.57.08Zm46.82 47.41s-.01-.05-.02-.09c-.35-.43-.2-.16.02.09ZM135.59 99.59c2.75 1.41-4.69 1.34-.52 2.97-.36-.57 3.98-1.96.52-2.97Zm-12.43-79.16c.39-.1.78-.19 1.18-.29-.54.12-.9.21-1.18.29Zm11.92 82.14.43.17c-.18-.07-.28-.11-.43-.17Zm185.37-13.6c.18.18.46.28.75.37-.06-.12-.24-.24-.75-.37Zm37.6-19.79c-.18.26-.38.52-.6.76.3-.27.47-.53.6-.76Zm-60.46 26.78c-.63 0-.87-.14-1.68.18.09.05.17.09.28.12.27-.23.66-.38 1.4-.29Zm-24.83 3.48c.14.09.33.15.49.22.24-.05.53-.11.78-.16l-1.27-.06ZM198.06.48c.56.17.91.37 1.19.56-.4-.45 3.33-.6-1.19-.56Zm-75.62 20.21c.13-.08.34-.16.71-.26-.28.07-.55.14-.82.21-.06.05-.07.08.1.05Zm175.97 85.76-4.08.52c1.15-.07 2.63-.27 4.08-.52ZM19.82 38.04l.73-.66c-.33.19-.6.41-.73.66Zm262.52 70.95c-.79-.37-1.59-.54-2.4-.62-.15.13-.34.24-.43.41l2.83.21ZM199.25 1.05Z" />
	<path
		d="M225.86.3c-3.85-.19-1.82.58-2.64.93-4.59.03-2.12-.58-3.67-.99-2.87.08-5.08.68-7.21.62-.16-.13-.58-.18-.09-.32-3.03.52-9.01-.11-12.53.71-.26-.07-.4-.14-.47-.2.58.41.68.83.56 1.12-1.72.02-3.18.58-3.84.04 1.06 0 1.14-.23 1.63-.4l-1.8.27c-1.65-.77 2.46-.31 2.45-.89-3.52.27-7.6 1.04-10.3.89-.6-.8 6.3-.41 2.67-1.05l4.19.23c-3.23-1.2 2.54.07-.43-1.23-5.52-.19-6.15.47-11.65.36-1.22.5.44.68-.77 1.19-3.87.58-5.43.11-6.74-.35-1.31-.45-2.36-.92-5.19-.18-1.45.68-1.94 1.85-6.06 1.51l1.31-1.14c-5.34.22-2.91 1.71-8.54 1.4.95-.5 4.15-.66 3.33-.73-3.69-.59-2.5.78-5.27 1.02l-.67-.93c-5.66.59-11.81 1.92-18.02 2.85.3-.36 1.34-.81-.17-.96-7.82 1.43-16.84 2.02-24.55 2.59l-2.71 1.47c-.67.11-1.33-.23-.64-.55-3.02.14-.03.66-1.38 1.3-1.66.37-2.33-.18-1.32-.67-2.52.89-6.12 2.06-9.79 3.05-3.67 1-7.4 1.81-10.25 1.9l.98-.56c-4.34.56-4.21 3.3-8.36 3.32l.7-.38c-4.62.94-9.36 2.41-13.84 3.77-4.49 1.36-8.71 2.62-12.43 3.02-.36 1.02-2.62 1.66-4.76 2.37-2.14.72-4.16 1.53-3.96 2.76-2.73.5-3.79.52-5.08.71-1.29.19-2.83.51-6.51 1.88-1.92.83-2.05 2.77-4.15 4.23l-.7-1.1c-.8.96-1.58 1.95-2.34 2.93-.81-.14-1.61-.24-2.42-.35-.64.52-1.26 1.06-1.88 1.61.86-.49 2.06-.63 2.14-.23-1.44 1.25-3.47 2.37-5.22 3.17-1.74.8-3.21 1.3-3.47 1.07-2.19 2.27-4.25 4.73-6.05 7.46-.27-.49.64-1.9 1.3-3.04-1.29 2.35-1.66 2.35-2.08 2.24-.39-.09-.82-.25-1.82 2.15.64-.37.45.77.62 1.01-1.05.76-2.35 2.43-3.37 4.64-1.03 2.2-1.65 5.01-1.58 7.45-.3-.32-.59-.66-.89-1.02-.3 2.27-.12 4.73.51 7.05.62 2.33 1.68 4.49 2.94 6.4 2.57 3.81 5.86 6.57 9.1 9.02-2.06-2.18-.42-3.02 1.47-1.78l-.12 1.75c1.74.1-1.62-1.84 1.49-1.02 2.28 1.71.72 2.51-.99 1.98 1.1.51 2.19 1.04 3.29 1.47-.05.49-.88.27-1.37.65.88-.04 2 1.11 3.29 2.12 1.28 1.05 2.72 1.95 3.99 1.68v.49c3.47 1.66 6.08 2.52 8.52 3.31 2.44.72 4.7 1.4 7.62 2.27.5-1.23 2.66-.24 4.67-.79 4.08 1.62 8.54 3.85 13.71 4.88 3.75.13 1.29-.89 3.07-1.32 0 1.27 5.16 2.18 2.33 2.52 6.21 1.01 7.94 1.31 15.91 1.55-.77-.64-1.69-1.01-1.13-1.35 1.44.03 3.14 1.01 2.85 1.58l-.39.07c4.52-.26 9.45 1.31 14.21 2.73 4.76 1.39 9.34 2.63 12.97 1.66l-.41.09c2.47-.23 4.94-.44 7.4-.7 3.33.5-2.09.78.32 1.77 8.02-1.45 12.39 1.28 18.96.27 4.81 4.1 17.78.67 24.44 3.28l-.36-.9c1.78-.81 2.1.57 3.38.82-.16-.7-1.87-.85-.77-1.31 14.82-.61 30.5 1.94 45.75 2.54 5.58.14 3.08-4.61 10.13-2.66l-1.95 1.68c11.17-2.2 22.98-.68 33.87-3.1-.63.42-.62.9-1.69.97 2.4 1.03 8.59-.56 8.55-1.53 1.72-.02.46.83 1.56 1.23 2.39.48 5.72-2 7.06-.97.23.17-.62.44-1.04.57 1.47-.71 7.09-.57 5.5-1.76 4.19.19 7.81-1.47 11.18-1.11.98-.88 2.76-.94 4.35-1.05 1.59-.12 2.99-.31 3.18-1.39 0 2.2 7.47.61 9.88-.88-.76.79 2.37.26 1.51 1.32 2.96-.59 5.6-1.51 4.87-2.48 2.96.7 5.61-.4 7.94-1.37 2.34-.99 4.37-1.82 6.29-.67 8.45-3.4 16.18-6.71 23.45-10.57.28.97-1.78 2-3.79 2.87-2 .92-3.96 1.68-3.42 2.64 3.53-1.76 6.14-3.6 8.72-5.36 2.59-1.78 5.16-3.45 8.61-5.41 1.87-.93-.49 1.4-.94 2.03 3.23-2.47 6.45-4.8 9.29-7.69 2.81-2.83 5.25-6.4 6.09-10.5.16.08.04.98-.13 1.84.59-1.53 1.48-3.61.57-3.63l-.2 1.6c-1.04 1.02-1.06-.74-1.28-2.63-.08-.95-.28-1.96-.45-2.72-.23-.77-.43-1.29-.6-1.35.62.58.97.47 1.2-.06.19-.52.27-1.43.25-2.28 0-.43 0-.85.02-1.21 0-.36.05-.66.15-.86.22-.4.7-.42 1.73.49-.21-.51-.49-1.07-.79-1.44-.3-.37-.63-.54-.87-.35-.31-1.47-.17-2.1.97-.79-1.18-2.67-2-3.22-2.59-3.84-.66-.56-1.17-1.12-2.5-3.07.36-.24 1.02.48 1.71.64-2.06-1.64-4.07-2.98-6.53-5.92.34 0 .25-.56 1.06.27-2.4-2.34-4.9-3.72-7.38-5.08-2.5-1.36-5.01-2.69-7.8-4.77 2.65-.43-1.75-1.68-1.37-3.13-1.18-.47-2.36-.95-3.55-1.38l1.01 1.31c-2.91-1.55-5.96-1.82-8.3-3.38.82.14 1.63.31 2.45.46-1.89-.77-3.79-1.51-5.7-2.19 1 .59 1.97 1.22 2.95 1.85-3.3-.62-.4 1.77-4.18-.25.86.19-2.95-1.24-4.23-2.59h.01c-1.65-.14-3.34-.27-5.47-1.37-.44-.62.97-1.28.69-1.69-1.86.57-7.31-2.04-9.57-1.41.71-.08.95-.75.78-.95l-1.53.51c-1.35-.68-1.53-.88-1.14-1.35-4.29-1.35.92 1.99-4.02-.09.42.04.26-.15 1.14-.06-5.08-1.73-10.14-1.95-14.84-3.35-1.16-1.55 4.27.56 2.87-.83-7.02-1.22-14.7-1.27-21.41-2.49l1.24.31c-1.17 1.52-4.92-1.52-8.46-1.14.85-.02 1.21-.77.96-.61-4.63-.79-9.58-.63-16.67-.66l.91-.33c-2.72-.56-7.23-.65-10.2-.95-.9.33-2.6.21-1.59.79-4.53-1.24-8.94-1-13.18-.74-4.25.31-8.35.63-12.43-.01.97-.03 2.31-.34 1.54-.32-2.31.15-4.62.33-6.92.52.56.5.92.28 2.38.65-.87.35-2.81.63-4.52.7 3.09-.47-.06-.84-1.41-1.05.23.15-.22.34-.1.49-3.65-.73-.56 1.02-5.51.69l.25-.27c-1.84.23-3.51.68-5.5.73-.86-.49 1.94-.38 2.04-.85-2.79.23-5.43 1.41-7.99 1.09 1.17-.24 2.87-.38 4.05-.62-2.79-.39-3.1-.21-5.15-.12h.2l-4.74.2 1.22.03c-1.68.81-3.45 1.06-5.37 1.26-1.92.21-4 .42-6.29 1.07 4.46-1.25.7-.51.99-1.04-1.21.01-3.04.12-2.54-.09-2.16.68-3.73.23-6.77 1.25-.16-.13-2.36.35-1.91-.08-2.85.59.71.13.5.35-2.17.6-4.79.84-7.63 1.24-2.85.37-5.92.89-9.03 1.76-5.39 1.29-6.33 1.82-11.33 3-1.72.23 1.32-.61 1.32-.61-2.76.47-4.81.95-7.35 1.64.51-.18-.04-.11-.84 0-2.05.51-1.32.56-4.05 1.13.45-.18 1.02-.44 1.99-.77-2.4.69-4.77 1.37-7.25 2.08-.68.09 1.47-.53 2.34-.82-2.79.78-7.24 2.03-8.07 2.38l1.8-.45c-1.02.28-.55.05.2-.18 2.37-.74 3.47-.88 3.62-.86l-1.77.49c1.89-.2 7.14-1.85 10.74-2.71l-1.44.63 3.64-1.09c.8-.1 1.38-.04-.39.4 2.62-.41 2.26-.62 4.53-.9.25-.02.14.02-.08.08l2.51-.63c-.48.18.48.18-1.09.44 4.6-.67 7.29-1.73 9.07-1.72l-.38.09c6.31-1.28.55-.45 5.24-1.7 1.12.1 2.24.22 3.36.36l.56-.48c.66-.09 1.96-.26 1.75-.07 2.4-.65-.44-.1.93-.58 3.22-.14 8.7-1.5 9.52-.86 1.09-.5-3.07.14.28-.55 1.07.65 3.9-.66 6.85-.63-.84.55-3.61.63-.66.68 1.66-.96 5.67-.44 8.1-.8.05-.66 5.3-.77 9.41-1.29-.12.13 1.83.09 4.28.03 2.46-.04 5.43-.1 7.35-.02l-.11.13c.7-.82 4.67-.83 7.55-1.08-.1.49-.61.71-2.16.97l2.71-.07c.63-.28 1.47-.43 3.23-.57l-.67.65c3.6-.08 7.25-.84 11.89-.34.27-.64-3.7-1.79 1.23-2.19.18.35.36.94-.93 1.07.42-.04 1.51-.27 2.35-.12l-1.97.56c2.11.28 1.11-.47 2.8-.4-.04.5 1.25.39 1 .78-.43.03-1.47-.24-2.12-.05 1.91.11 4.2.49 4.95.9-.16-.29.02-.69 1.41-.71 3.6.1 1.22.67 3.3 1.03.88-.33 3.16.18 3.26-.62 1.05.06 1.23.44 1.63.68.94-.12 3.11 0 4.79.01 1.68.04 2.88-.03 1.86-.55l-.47-.09c.09 0 .2 0 .31-.01h-.02.02c6.18-.42 12.63 1.55 18.68 1.94l-.05.3c3.63.11 8.01.88 10.66.62 1.06.17 2.41.97 1.9 1.27 2.76.24 3.14-.1 6.97 1.17-2.83.05.85.67-2.87-.12 3.48.93 4.16 1.61 8.11 1.51-1.45.56 2.41 1.62 4.12 1.76-.77-.39-1.54-.78-2.31-1.15 1.9.28 3.51.75 5.15 1.2l-1.15.91c3.38 1.55 6.68 1.79 9.77 2.16 3.08.36 5.94.82 8.2 2.86 2.09-.23-3.59-1.77-1.66-2.19 3.19 1.13 5.92 3.96 6.89 4.31 2.02 1.11 3.17 1.05 4.35 1 1.19-.07 2.42-.13 4.55.99-.4-.64-.49-2.01 3.01-.99 3.05 1.51 3 3.43.93 2.9-.74-.29-1.04-.58-.95-.71-1.06-.28-2.43-.65-1.41.32l.57-.25c.67.54 2.04 1.28 3.08 1.91 1.03.65 1.74 1.18 1.1 1.29 2.42.69 1.29-.22-.29-1.23 3.54 2.44 5.95 2.96 9.45 5.55-.46-.57-.73-1.38-.14-1.02 2.59 1.88 3.27 2.1 3.82 2.06.54-.02.95-.3 2.79.86 1.57 2.03-1.68.87 2.11 2.96 1.7 2.03-.37 1.33-1.4 1.03 1.78.8 3.05 2.08 3.94 3.35.93 1.26 1.47 2.51 2.06 3.32-.51-.38-1-.75-1.54-1.1.48.32.86.65 1.19.99.34.34.64.68.91 1.04.04-.48.07-.97.07-1.45.6.95 1.14 1.68.81 1.91.57.24.78-.17 1.08-.5.31-.33.7-.58 1.75.11.22.77.95 1.65 1.45 2.52.49.87.79 1.71.24 2.18-.67-2.12-.99-1.84-1.24-1.47-.29.38-.57.84-1.54-.67.24.26.45.58.66.95.2.37.33.81.47 1.28-.07.19-.31-.01-.49-.21.09.5.11.88.19 1.17.08.3.16.51.25.68.18.33.48.46.78.6.57.27 1.46.6 1.56 2.55-.4-.23-.72.02-.97.36-.27.34-.37.77-.35 1.05.07-.68.36-.85.75-.67.19.09.4.28.59.54.17.26.31.6.42.99-.52 1.22-.63 1.88-.66 2.47-.04.58.04 1.07-.32 1.7l.49-.69.43-.72c.52.79-.1 2.13-1.07 4.01-.56-.17.64-1.81.03-1.32.03 1.33-1.09 2.25-2.31 3.06-1.25.82-2.66 1.53-3.62 2.95-1.53.56-1.06-1.03-2.31-.5-1.12 1.49-2.14 1.84-3.15 2.14-.5.16-1.02.3-1.61.57-.57.27-1.2.68-1.97 1.32 1.51.38 1.61.05-.41 2.31 1.85-1.27 3.66-2.56 5.29-3.98-.86 1.19-1.8 2.36-2.79 3.53 1.78-1 3.29-2.77 4.33-3.32-1.15 1.86-1.19 1.51.14 1.71-.81.06-1.46.32-2.05.7-.6.36-1.14.83-1.68 1.33-1.11.97-2.29 2.02-4 2.27l-1.09-2.41c-2.4.51-4.19 1.67-6.21 2.91-2 1.26-4.25 2.57-7.38 3.26l2.09-.22c-.46 1.3-3.71 1.4-5.57 2.41-.08-.92-1.42-.87-2.43-1.17.3.64-4.52 1.18-4.64 3.08l-3.09-.47c-2.59.34-3.88 1.32-5.18 2.29-1.29.98-2.56 1.97-5.08 2.31 1.29-1.29-1.08-1.49 2.08-2.84-1.65.32-3.16.44-3.06 1.08-1.07-.39-4.35 2.09-6.04 1.47-.63.52-.69 1.52-2.58 1.76-.24-.15-.07-.46-.07-.46.07.47-2.84 1.08-1.03 1.85-5.59-2.04-14.44 2.29-19.26.25-3.63.71-8.03 1.46-11.37 1.82.19-.3-.03-.48.61-.43-4.69-.52-2.6 3.01-7.95 2.41-2.81-1.36 2.73-1.05 1.01-1.51-.97-3.1-6.31.9-9.98-.75l.84-.24c-2.76-.92-6.52 1.6-10.97 1.56 0 0 .2-.29 0-.48-2.95 1.77-8.68 2.54-12.94 3.11 1.29-1.3 1.92-.72 1.07-1.98-1.91.24.63 2.04-3.19 2.51-1.26-.65-4.04-1.2-4.43-2.56l3.6-.15c-1.89-1.72-4.65.16-6.56-.11l.23-.78c-5.5.33-5.56 2.3-11.5 2.19l.62.59c-3.24 1.95-2.73-1.07-5.96.37l-.98-1.97c-2.14.48-7.5 1.89-11.36 2.21 2.2-1.44 6.69-2.14 9.47-3.01-2.12 0-7.2.11-8.32 1.07.86-.18 1.94-.65 2.78-.34-2.61 1.52-6.06 2.26-10.29 2.15.81-3.8-11.02-1.16-14-4.24-7.51 1.21-14.78-1.08-23.46-1.3 2.92 3.11-2.54-.04-2.17 3.02-2.04.08-2.81-.02-2.98-.22l-6.02-2.19c-1.39-.98 1.96-.54 1.82-1.24-4.4-.52-1.77-1.41-4.63-2.4.52 1.13-1.64 1.44-4.12.85l3.44 1.65c-6.29 1.16-5.13-2.92-11.46-1.83l2.04-.79c-3.23.32-11.69-1.05-15.06 1.01-.52-.41-1.17-1.3.24-1.37-7.51-1.13-17.17.52-22.8-1.86l.68-.63c-1.43 0-2.66.98-4.29-.04.14-.28.68-.62.04-.77-.78.13-3.93.63-5.69-.13l1.72-.52c-7.07-2.23-11.5-.19-17.67-1.17.5-2.02-4.91-4.08-7.52-5.2l.18-.26c-4-1.29-7.48-1.99-10.92-2.69-3.42-.7-6.81-1.39-10.37-2.81-1.55-2.08-4.85-4.19-7.67-6.85-1.4-1.32-2.67-2.76-3.46-4.2-.79-1.44-1.1-2.84-.96-3.99-.12.36-.51.42-.9.23-.42-.18-.78-.64-.91-1.13.1-.33.09-.71.03-1.12 0-.41-.12-.85-.09-1.25 0-.79.22-1.37 1.03-.97l-.19.46c.5-.13.9-.37 1.21-.7.38-.33.61-.74.93-1.21.55-.94 1.2-2.13 1.95-3.1-.53-.58-1.06-1.16-1.58-1.76 1.74-.86 3.34-2.1 4.98-3.51l5.04-4.43c3.39-2.93 6.88-5.34 9.38-5.11 1.34-1.39 3.36-2.47 4.78-3.78l.43 1.1c4.73-2.01 7.11-2.96 12.92-5.68l-.9 1.26c3.34-1.31 3.05-4.79 6.2-6.03l1.52 1.24c5.98-2.21 12.51-2.83 18.16-6.01-.04.26-.09.76-1.06 1.11 2.88-.86 11.44-2.12 9.87-3.91.41 1.33 6.42-1.53 9.68-2.88l-.31 1.1c2.57-1.92 2.59-2.28 6.52-3.49.98-.07.99.59-.32.62 3.27-.16 2.28-1.44 6.23-1.7l-1.32.89c3.28-.58 2.95-.86 4.63-1.9 1.99-.77 6.27-.91 6.89-.16.35-.59 2.04-1.58 4.02-1.66.31.27-.36.58-.7.73 5.58-.33 8.03-2.36 11.95-2.05.12.28.39.39.71.43-4.38.62-7.9 1.14-7.58 1.03.13.83 3.66.39 1.04 1.99 2.72-1.11 7.39-3.16 10.89-3.26.18.05.35.11.49.21l-.35.14c.81-.03 1.51-.2 2.16-.43 1.12-.02 1.83-.03 2.88-.15.48.59 4.1-.2 5.87-.36-.24-.81 2.1-.95-.15-1.38.29.03-.32.14-1.5.31-.26.05-.58.11-.75.18.03-.03.07-.06.11-.09-1.16.16-2.67.37-4.39.6 1.35-.61 2.77-1.14 4.78-.92.85-.64 1.8-1.3 2.34-1.62 2.55.88 7.29.99 8 1.6 5.37-1.02 12.73-1.52 16.07-3.14 1.54-.28 1.8.27 2.39.45-.88.2-1.95.26-2.42.49 3.07-.59 9.15-.76 9.85-1.7 3.92.21-2.16.95 3.2.52l-.71.31c5.3.42 9.56-.35 13.99-.95 4.43-.62 9.02-1.05 14.88-.33-.81-.08-1.22-.12-1.38-.25 6.68.28 13.57.16 20.44.24 6.87.07 13.72.34 20.28 1.02 3.74.32 4.16.07 6.46.01l.79.39 3.94-.1c5.56.22 9.53 1.37 16.57 1.62l-.89-.22c2.51.25 7.97.75 7.53.83.26 0 .84-.02 1.81.14l.07.08c2.06.18 4.12.39 6.18.6 4.77.62-.77.11 6.2.91 2.6.28 7.38.88 6.41.76-1.04-.14-2.67-.36-2.74-.39l2.36.33c.43.04 2.23.4-3.54-.65-1.34-.23-2.69-.45-4.04-.64l-1.29-.26 3.39.56c-1.92-.36-3.14-.54-4.52-.72-.32-.09-.88-.2-1.68-.35-1.33-.16-2.66-.31-3.99-.45-.47-.15 1.8.13-.86-.33-1.87-.19 1.76.44-1.32.05-1.93-.36-1.35-.38-3.63-.6-.31-.11.17-.09 1.08.02-2.03-.22-5.36-.73-6.42-.7-2-.46-6.85-.8-6.62-1.12-.65 0-3.6-.14-5.47-.32 1.73-.05-.02-.26-2.08-.51-2.06-.24-4.44-.5-3.96-.76-2.56.21-9.15-.7-13.66-.73.25-.03.75-.09 1.15-.02-2.52-.27-3.25-.5-4.86-.77-.35.51-4.3.37-6.43.62-3.07-.77 1.91-.59.96-1.19.13.48-5.41.12-4.37.62-2.36-.5-2.04-.29-3.24-.9-.44.78-2.21.01-4.2.44-3.42-.57-.86-.86-4.65-.75-1.79-.35 1.58-.51 1.58-.51Zm-89.73 5.04v-.02c.77-.11 1.42-.2 1.84-.26-.38.06-.91.14-1.84.28Zm-7.5.97c.92-.09 2.06-.23 3.26-.4.3.27.06.62-.69.71.38-.26-1.41-.2-2.56-.31Zm16.54 3.94c-1.16.27-1.57.16-1.75 0 .55-.09 1.2-.2 2.04-.36.03-.04.1-.08.13-.12-.09.17-.21.34-.42.48Z" />
	<path
		d="M147.16 8.89c.17-.04.26-.08.48-.12-.25-.05-.48-.08-.72-.11-.13.11-.27.22-.39.31.21-.03.43-.06.63-.09Zm95 3.45.16.03c-.13-.04-.25-.08-.32-.14.1.05.1.07.17.11ZM27.03 32.94l.16.25.47-.56-.63.31zM200.75 9.46c-.08-.05-.24-.1-.55-.13.03.04.26.08.55.13Zm-17.92 1.15-2.54.06c1.1 0 1.9-.03 2.54-.06Zm-13.74 1.29c-.16.1-.21.17-.24.23h.03l.22-.23Zm196.75 59.8c-.09.21-.17.42-.23.62-.46 1.51-.08.51.23-.62ZM321.6 25.39c.72.06 1.43.14 2.16.29-1.06-.51-1.91-.85-2.16-.29Zm-22.74 81.01v-.02c-.16.03-.29.05-.45.08l.45-.06Zm27.74-79.56c-1-.65-1.94-.97-2.84-1.16.87.41 1.88.93 2.84 1.16Zm-216.08-3.13-.64.18s-.02.02-.07.04l.71-.22Zm-.71.22-.71.22c.33-.09.61-.17.71-.22Zm-2.19.66 1.49-.45c-.52.15-1.15.33-1.49.45Zm20.6-5.32.19-.13c-.11.04-.17.09-.19.13Zm5.41-1.24c-1.3.24-3.28.53-5.07 1l-.15.11c.82-.33 4.02-.71 5.22-1.11Zm23.02-2.54c-1.53.18-3.07.34-4.6.54.82.02 1.91.06-.17.4 5.85-.38-1.25-.17 4.78-.95Zm14.29-1.45c-2.47.33.06.26-.06.38 1.55-.32 1.93-.4.06-.38Zm103.21 2.82-.38.77c1.89.22.07-.31.38-.77Zm20.38-.47-1.72-.95-1.06.6c.93.11 1.85.23 2.78.35Zm9.67 9.22-.83-.11c1.04.19 2.07.39 3.1.6l-2.28-.49Zm-27.14 72.13.76 1.44c1.25-.42 1.3-2.14-.76-1.44Zm-74.66 5.64c-.82-.78-2.94-1.28-4.23-.5 1.69.1 3.38.7 4.23.5ZM17.56 53.25c-.18.43-.38.85-.55 1.27.46-.68.9-1.39 1.43-2.06-.3.26-.6.51-.88.78Z" />
</svg>