<svg xmlns="http://www.w3.org/2000/svg" fill="none" viewBox="0 0 76 91">
	<g filter="url(#a)">
		<mask id="b" width="56" height="72" x="10" y="9" fill="#000" maskUnits="userSpaceOnUse">
			<path fill="#fff" d="M10 9h56v72H10z" />
			<path
				d="M21.2 30.7s-2.2001 9.2 8.0999 13c-1.4-5.3-2.8-6.6-.5-13C33.7999 16.9 45.9 15 45.9 15s-3.3001 6.8.8999 13C50.2999 33.1 61.1 39.5 60.1 50.4c-2 20.8-26.6 24.8-26.6 24.8s3.7-7.3-8.5-16.5c-6.3-4.8-10-9.7-10-15.4.1-8.4 6.2-12.6 6.2-12.6Z" />
		</mask>
		<path fill="#FAF3E9"
			d="M21.2 30.7s-2.2001 9.2 8.0999 13c-1.4-5.3-2.8-6.6-.5-13C33.7999 16.9 45.9 15 45.9 15s-3.3001 6.8.8999 13C50.2999 33.1 61.1 39.5 60.1 50.4c-2 20.8-26.6 24.8-26.6 24.8s3.7-7.3-8.5-16.5c-6.3-4.8-10-9.7-10-15.4.1-8.4 6.2-12.6 6.2-12.6Z" />
		<path stroke="#372E25" stroke-linejoin="round" stroke-miterlimit="2.0255" stroke-width="10"
			d="M21.2 30.7s-2.2001 9.2 8.0999 13c-1.4-5.3-2.8-6.6-.5-13C33.7999 16.9 45.9 15 45.9 15s-3.3001 6.8.8999 13C50.2999 33.1 61.1 39.5 60.1 50.4c-2 20.8-26.6 24.8-26.6 24.8s3.7-7.3-8.5-16.5c-6.3-4.8-10-9.7-10-15.4.1-8.4 6.2-12.6 6.2-12.6Z"
			mask="url(#b)" />
	</g>
	<defs>
		<filter id="a" width="75.1658" height="90.2003" x="0" y="-.0001" color-interpolation-filters="sRGB"
			filterUnits="userSpaceOnUse">
			<feFlood flood-opacity="0" result="BackgroundImageFix" />
			<feColorMatrix in="SourceAlpha" result="hardAlpha" values="0 0 0 0 0 0 0 0 0 0 0 0 0 0 0 0 0 0 127 0" />
			<feOffset />
			<feGaussianBlur stdDeviation="5" />
			<feComposite in2="hardAlpha" operator="out" />
			<feColorMatrix values="0 0 0 0 0 0 0 0 0 0 0 0 0 0 0 0 0 0 0.25 0" />
			<feBlend in2="BackgroundImageFix" result="effect1_dropShadow_102_10" />
			<feBlend in="SourceGraphic" in2="effect1_dropShadow_102_10" result="shape" />
		</filter>
	</defs>
</svg>
