<svg xmlns="http://www.w3.org/2000/svg" fill="none" viewBox="0 0 34 34">
	<path fill="currentColor"
		d="M26.075 28.573H7.85a2.499 2.499 0 0 1-2.499-2.5V7.85A2.498 2.498 0 0 1 7.85 5.353h18.224a2.498 2.498 0 0 1 2.498 2.497v18.224a2.499 2.499 0 0 1-2.498 2.498Z" />
	<path fill="#fff"
		d="m16.183 32.602-14.86-14.86a1.105 1.105 0 0 1 0-1.56l14.86-14.86c.43-.43 1.13-.43 1.56 0l14.86 14.86c.43.43.43 1.129 0 1.56l-14.86 14.86c-.43.43-1.13.43-1.56 0Z" />
	<path stroke="currentColor" stroke-miterlimit="10" stroke-width="1.333"
		d="m16.183 32.602-14.86-14.86a1.105 1.105 0 0 1 0-1.56l14.86-14.86c.43-.43 1.13-.43 1.56 0l14.86 14.86c.43.43.43 1.129 0 1.56l-14.86 14.86c-.43.43-1.13.43-1.56 0Z" />
</svg>