<svg xmlns="http://www.w3.org/2000/svg" fill="none" viewBox="0 0 34 34"><path fill="#000" d="M26.075 28.575H7.85a2.499 2.499 0 0 1-2.499-2.499V7.852A2.498 2.498 0 0 1 7.85 5.355h18.224a2.498 2.498 0 0 1 2.498 2.497v18.224a2.499 2.499 0 0 1-2.498 2.499Z"/><path fill="#fff" d="m16.183 32.604-14.86-14.86c-.43-.43-.43-1.13 0-1.56l14.86-14.859c.43-.43 1.13-.43 1.56 0l14.86 14.859c.43.43.43 1.13 0 1.56l-14.86 14.86c-.43.43-1.13.43-1.56 0Z"/><path stroke="#000" stroke-miterlimit="10" stroke-width="1.333" d="m16.183 32.604-14.86-14.86c-.43-.43-.43-1.13 0-1.56l14.86-14.859c.43-.43 1.13-.43 1.56 0l14.86 14.859c.43.43.43 1.13 0 1.56l-14.86 14.86c-.43.43-1.13.43-1.56 0Z"/><path fill="#000" d="M8.515 17 17 8.514 25.485 17 17 25.485z"/></svg>