<svg xmlns="http://www.w3.org/2000/svg" fill="#faf3e9" viewBox="0 0 72 71">
	<path fill="#372E25"
		d="m9 25.5-.1-6.7.3-6.7 2.7-2.9 6.7.1 6.8.1m0 52.6-6.8.2-6.7-.1-2.6-2.8001L9 52.6v-6.7001m52.9 0V52.6l.2 6.6999L59.2 62h-6.8l-6.7.1m0-52.7h6.7l6.8-.1 2.8 2.8v6.7l-.1 6.7" />
	<path stroke="#372E25" stroke-miterlimit="10" stroke-width="5"
		d="m33.9 68-5.7-4.5-4.9-5.4-5.5-4.6-4.6-5.7-4.9-5.3-5.3-5 .1-3.5 5.3-5 4.5-5.7 5.6-4.7 4.6-5.6 5.5-4.7 5-5.3 3.6.3 5.5 4.8 5 5.2 5.2 5 4.7 5.6 5.1 5.1 6 4.2-.2 4.7-5.6 4.7-5 5.2-5.4 4.8-4.4 5.9-5.9 4.3-4.8 5.5-3.5-.3Z" />
</svg>
