<svg width="146" height="128" viewBox="0 0 146 128" fill="none" xmlns="http://www.w3.org/2000/svg">
<path d="M70.4418 3.851C67.897 7.38238 64.9925 11.79 61.262 17.8438L59.1036 21.3353L59.2635 22.2646C59.7298 24.8667 59.7165 26.0217 59.2102 26.5793C58.8638 26.951 57.5847 27.575 56.2391 28.0263C55.5596 28.252 54.9201 28.4379 54.8268 28.4379C54.7202 28.4379 53.4412 29.9115 51.9623 31.717C49.4442 34.8103 49.1511 35.2086 47.1925 38.5276C46.0467 40.4658 44.0615 43.6255 42.7958 45.5505L40.4776 49.0553L41.5834 48.9757C42.1963 48.9226 43.7951 48.8562 45.1541 48.8031L47.6189 48.7234L51.083 49.6793L54.547 50.6351L56.0526 52.1088C56.8786 52.9319 58.091 54.1665 58.7439 54.8701L59.9297 56.1313L60.5292 59.5831C60.8623 61.4815 61.1421 63.1808 61.1421 63.3534C61.1554 63.5393 60.8623 65.3182 60.5159 67.3096L59.8764 70.9207L57.0118 73.775L54.1473 76.616L50.7898 78.4746C47.5922 80.2536 47.2725 80.3863 43.9949 81.5546C42.103 82.2184 40.5442 82.776 40.5309 82.7893C40.5175 82.7893 40.4376 85.3913 40.3443 88.551C40.2511 91.6974 40.1445 94.2862 40.1045 94.2862C40.0645 94.2862 38.3458 93.2772 36.3074 92.0293L32.5901 89.7857L29.5124 86.626C26.9144 83.9575 26.0217 82.9353 23.8234 80.081L21.212 76.6957L19.5599 72.8058C18.4541 70.2038 17.8545 68.9426 17.7479 68.9957C17.5214 69.0753 17.5214 69.0488 17.7746 63.6189C17.9611 59.7557 18.0677 58.5476 18.6539 54.3789C19.0136 51.737 19.3068 49.427 19.3068 49.2544C19.3068 49.0553 18.3475 47.6746 16.5488 45.285C11.446 38.5408 9.67397 36.045 7.54223 32.5932C6.06334 30.177 4.70436 28.1989 2.94568 25.8889C1.57337 24.0834 0.440885 22.6363 0.414238 22.6496C0.307652 22.7558 1.5334 31.3453 2.17292 35.0094C2.78579 38.4744 2.94568 39.7357 3.1855 42.975C3.45196 46.5993 3.5319 47.1038 4.3846 51.4715C4.89089 54.0205 5.59702 57.8439 5.97008 59.9681L6.62292 63.8181L6.70286 67.9336L6.76948 72.0491L7.5822 76.0319C8.02187 78.2357 8.64807 81.9396 8.98116 84.3293C9.31424 86.7057 9.90047 90.3432 10.3002 92.4276L11.0196 96.2112L12.765 99.7957L14.497 103.38L17.0684 106.513L19.6398 109.66L22.8907 112.222L26.1416 114.771L33.3496 118.329L40.5708 121.887L45.1008 123.015C47.5789 123.626 51.2961 124.502 53.3479 124.94C56.9319 125.697 57.4115 125.777 65.3123 126.626L73.5461 127.529L75.3714 126.586L77.1967 125.657L79.1686 126.148L81.1538 126.653L85.4972 126.082C92.9849 125.086 96.8087 124.409 101.152 123.281L105.043 122.285L108.88 120.546L112.717 118.82L116.154 116.483C118.033 115.182 121.124 113.204 123.016 112.076L126.466 110.018L128.425 107.761C132.262 103.354 131.743 104.163 133.461 99.955L134.98 96.2112L135.713 92.4939C136.099 90.4494 136.725 86.7455 137.099 84.2629C137.458 81.7803 138.044 77.8905 138.418 75.6336C139.004 71.9694 139.097 71.0667 139.284 67.4689C139.417 64.92 139.67 61.9462 139.963 59.437C140.416 55.7331 140.509 55.1622 141.482 51.2724L142.521 47.0905L142.748 43.0413L142.974 38.9922L143.88 34.8103L144.786 30.6284L145.013 27.0041C145.133 24.9994 145.212 23.3532 145.186 23.3267C145.119 23.2736 136.006 35.66 133.435 39.2976C132.235 40.9969 130.064 43.8512 128.598 45.6434C126.666 48.0198 125.974 48.9757 126 49.1881C126.027 49.3474 126.4 51.5644 126.84 54.1267L127.652 58.7732L127.892 63.9508C128.105 68.5974 128.159 69.1948 128.412 69.7391C129.011 71.0667 129.278 72.8058 128.905 72.9519C128.811 72.9917 128.492 72.9651 128.212 72.8988C127.293 72.6863 127.266 72.7129 126.68 73.8679C125.521 76.1646 124.868 77.1338 122.283 80.4262C119.698 83.692 119.498 83.9177 116.394 86.7853L113.17 89.7724L109.506 92.0293C107.494 93.2639 105.802 94.2862 105.749 94.2862C105.695 94.2862 105.682 93.8481 105.709 93.3303C105.815 91.9098 106.175 84.0638 106.175 83.2407V82.537L102.431 81.2891L98.6873 80.0279L95.3564 78.1029L92.0256 76.1646L89.241 73.4431L86.4565 70.7215L85.5904 67.1105L84.7377 63.4994L84.0183 62.5303C82.7126 60.7912 82.4328 59.915 83.019 59.3707C83.1789 59.2246 83.7385 58.9724 84.2448 58.8131C84.7644 58.6538 85.244 58.4812 85.3106 58.4148C85.3773 58.3617 85.5105 57.7776 85.6038 57.1138L85.7636 55.9057L88.455 53.131C89.9338 51.591 91.1996 50.3431 91.2529 50.3431C91.2928 50.3431 92.9316 50.0112 94.8635 49.5996L98.3809 48.8562L101.832 48.9491L105.269 49.042L104.829 48.4048C104.59 48.0463 103.537 46.5329 102.511 45.0327C101.472 43.5326 99.6332 40.6915 98.4208 38.7267C96.9553 36.3238 95.4097 34.0536 93.771 31.8232C91.959 29.3938 90.7199 27.5351 89.1078 24.8534C87.469 22.1319 86.2832 20.3662 84.4446 17.8836C82.1264 14.777 79.928 11.4713 75.1982 4.01031C74.119 2.29772 73.1597 0.784276 73.0798 0.664793C72.9466 0.478931 72.5602 0.93031 70.4418 3.851ZM78.5157 88.6705L83.5253 97.9901L78.5291 106.58C75.7844 111.306 73.4928 115.222 73.4262 115.289C73.3196 115.395 63.2738 98.2955 63.2738 97.9901C63.2738 97.9105 63.6735 97.1007 64.1532 96.1846L65.0325 94.5384L65.5388 94.6181C66.0184 94.6977 66.0451 94.6844 66.1383 94.2862C66.1916 94.0605 66.1916 93.5958 66.1383 93.2507C66.0717 92.7196 66.0984 92.5603 66.3648 92.2284C66.7779 91.6841 67.1909 91.3655 68.0569 90.9008C69.0428 90.3698 69.1627 90.1176 69.0961 88.6439C69.0695 87.9801 69.0961 87.2765 69.1494 87.0641C69.3226 86.4401 73.3063 79.1384 73.4129 79.2446C73.4662 79.311 75.7578 83.546 78.5157 88.6705Z" fill="black"/>
<path d="M28.0472 12.9184C27.6342 14.3522 23.0376 31.4117 23.0376 31.5046C23.0376 31.6507 30.925 39.9215 31.0583 39.9215C31.1249 39.9215 32.9368 37.0274 35.0952 33.496L39.0123 27.0705L38.3994 26.1943C36.4942 23.5391 28.4602 12.4272 28.3669 12.321C28.3003 12.2546 28.1671 12.5202 28.0472 12.9184ZM111.172 19.7688C107.947 23.6055 105.269 26.8183 105.216 26.8979C105.123 27.0705 114.569 39.7888 114.796 39.7888C114.875 39.7888 116.514 38.3019 118.446 36.4698C120.378 34.651 122.257 32.872 122.63 32.5402L123.283 31.9162L120.231 22.3443C118.539 17.0738 117.14 12.7724 117.1 12.7724C117.061 12.7724 114.396 15.9188 111.172 19.7688Z" fill="black"/>
</svg>
