<svg width="94" height="138" viewBox="0 0 94 138" fill="none" xmlns="http://www.w3.org/2000/svg">
<path d="M82.8314 5.18928L80.0001 9.39015L76.328 11.8607C72.8686 14.1966 63.7175 20.1086 63.0894 20.4259C62.9348 20.5028 60.7992 21.4064 58.3544 22.4446L53.9093 24.3191L48.7878 25.3765L43.6662 26.4244L38.9796 28.7315L34.2929 31.029L30.0411 33.9033C26.1951 36.5084 25.422 37.0755 21.9239 39.8921C18.5225 42.6222 17.5948 43.4393 14.2223 46.6116L10.386 50.2261L7.49669 54.4654L4.60738 58.7048L2.99362 63.1844L1.38952 67.6641L0.703424 72.3648L0.017334 77.0656L0.36521 81.824L0.722752 86.5824L2.3655 91.0332L4.00826 95.4744L5.04222 100.166L6.07619 104.847L8.89786 109.173C10.444 111.547 13.0144 115.412 14.6088 117.748L17.5078 122.006L19.7014 126.736L21.8853 131.475L24.1755 133.205C25.4317 134.157 27.2484 135.532 28.205 136.262L29.9541 137.579L30.7465 137.224L31.5389 136.858L28.8815 132.398L26.2241 127.937L24.8132 122.881L23.4024 117.825L21.5664 113.066L19.7304 108.308L18.6384 103.213L17.5465 98.118L16.9957 92.927L16.4449 87.736L17.2179 82.6411L17.991 77.5462L15.7684 73.6529L13.5362 69.7597L12.338 65.3377C11.6905 62.9056 11.1591 60.8677 11.1687 60.81C11.1881 60.7523 12.6762 61.8001 14.4832 63.1363L17.7687 65.5684L20.1652 68.2889C21.4891 69.7885 22.6003 71.019 22.639 71.0382C22.6777 71.0478 23.6633 69.0676 24.8326 66.6259C26.4656 63.194 27.0165 62.1366 27.2387 61.9539C27.403 61.8386 28.4273 61.1176 29.5192 60.3582L31.5099 58.9835L29.9637 55.7728L28.4273 52.5524L28.6979 49.7358C28.8525 48.1882 28.9974 46.8712 29.0361 46.8135C29.0747 46.7558 30.8721 48.2074 33.3362 50.2838C35.6747 52.2448 37.6267 53.831 37.6943 53.8117C37.7523 53.7829 39.6463 52.2064 41.8979 50.303C45.7825 47.0154 46.198 46.6885 50.3822 43.747L54.779 40.642L58.9825 39.373C63.0411 38.1522 70.5397 35.8066 70.7137 35.7105C71.0712 35.4894 70.0276 36.5084 65.022 41.2572L59.3207 46.6597L57.3397 47.9959C55.3781 49.3129 55.3298 49.3513 51.7834 52.6966C49.5801 54.7827 46.5459 57.5031 43.8788 59.791L39.54 63.5112L36.6894 68.2505C35.1239 70.8652 33.858 73.0089 33.8774 73.0377C33.8967 73.0569 35.723 73.7202 37.9263 74.5277L41.9269 75.9793L45.9081 76.4215C48.092 76.6714 49.9087 76.8925 49.9377 76.9214C49.9667 76.9598 47.6765 77.4693 44.8452 78.0557C39.7333 79.1323 39.656 79.1516 34.2929 80.7569C30.0604 82.0259 28.8718 82.42 28.8138 82.5546C28.7752 82.6603 28.3113 84.8328 27.7799 87.3995L26.8232 92.0618L26.7072 96.7049C26.6396 99.2619 26.6106 101.367 26.6299 101.396C26.6589 101.415 26.8812 101.406 27.1421 101.377C27.5769 101.31 27.5866 101.3 27.374 101.185C27.1517 101.06 27.1614 101.06 27.5286 101.06C27.7412 101.06 29.2293 101.204 30.8334 101.367L33.7614 101.684L40.0135 99.7234C45.8791 97.8969 46.6039 97.695 51.4741 96.5318L56.673 95.2822L60.8475 92.2252C63.6498 90.1777 66.3459 88.1013 68.9936 85.9383L72.9459 82.7084L76.4247 79.0651L79.9034 75.4121L82.5608 71.2016C84.02 68.8945 85.2279 66.9431 85.2472 66.8758C85.2665 66.8181 84.4258 65.3569 83.3919 63.6362C82.3482 61.9155 81.4785 60.4447 81.4495 60.3678C81.4012 60.2524 81.9134 60.2044 84.822 60.089C86.7064 60.0121 88.2718 59.9256 88.3105 59.8872C88.3394 59.8583 88.7839 57.1763 89.2864 53.9367L90.2044 48.0343L91.7602 42.0743L93.316 36.1142L92.8715 29.9139C92.4367 23.925 92.4173 23.5212 92.369 18.1091L92.311 12.5048L91.1031 6.86194C90.4364 3.76656 89.8856 1.2095 89.8662 1.19989C89.8469 1.18066 89.3154 1.14221 88.6873 1.12299C88.0495 1.09415 87.1122 1.05569 86.6001 1.02686L85.6531 0.988403L82.8314 5.18928Z" fill="black"/>
</svg>
