<svg width="80" height="89" viewBox="0 0 80 89" fill="none" xmlns="http://www.w3.org/2000/svg">
<path d="M68.6191 0.805648C67.5114 0.878734 66.4524 1.01272 66.2454 1.09799C65.7342 1.30507 64.9551 2.08465 63.9813 3.37583C63.1292 4.50866 62.4597 5.14207 61.072 6.12873C60.1347 6.79869 59.4165 7.48082 59.1852 7.9437C59.0878 8.12641 58.9539 8.74764 58.8931 9.32015C58.7592 10.5139 58.5766 10.9037 57.9558 11.4518C57.408 11.9391 57.0915 12.0609 56.0203 12.2192C55.5577 12.2801 55.01 12.4263 54.8152 12.5237C54.2796 12.8039 50.7617 15.9344 50.0435 16.7749C49.7026 17.1769 49.1914 17.9565 48.8992 18.5168C48.2784 19.7105 47.9254 20.1734 47.402 20.4414C47.195 20.551 46.5864 21.0504 46.0386 21.562C45.503 22.0858 44.517 22.9141 43.8475 23.4379C43.178 23.9495 42.472 24.522 42.2772 24.7291C41.8634 25.1676 41.206 25.4965 40.6948 25.5087C40.147 25.5208 37.4081 23.511 36.6656 22.5487C36.3247 22.098 35.8013 21.6351 35.2414 21.2697C34.7545 20.9652 33.9145 20.2465 33.3789 19.6862C32.8433 19.138 31.5774 17.9077 30.5549 16.9576C29.5445 16.0075 28.3272 14.7529 27.8525 14.156C27.3534 13.5348 26.0753 12.2558 24.7728 11.0742C22.6547 9.1618 20.1593 6.84741 16.0571 2.96168C14.9007 1.87757 14.012 1.13453 13.6834 1.00054C13.2208 0.793467 12.6852 0.781286 7.34137 0.769105H1.51061L1.16977 1.09799C0.743726 1.52433 0.634171 2.34045 0.743726 4.32595C0.962835 8.41876 0.962835 8.95472 0.768071 9.9901C0.548961 11.1473 0.512443 12.1583 0.695034 12.6212C0.768071 12.8039 1.30367 13.4495 1.88797 14.0707C2.47226 14.692 3.47043 15.7761 4.10341 16.4947C4.90681 17.4205 5.64935 18.0904 6.53797 18.7482C7.24399 19.2598 8.47344 20.3074 9.27684 21.087C10.5063 22.2807 10.9323 22.6096 11.9549 23.1456C14.2677 24.3758 15.3997 25.3747 15.7162 26.4588C15.9597 27.2749 16.0936 27.482 17.3109 28.8341C18.9177 30.6247 19.9402 31.6113 20.7801 32.1717C21.7052 32.8051 22.6304 33.7186 27.0856 38.384C29.2402 40.6496 30.8835 42.2575 31.8208 43.0127C32.7825 43.8045 33.6589 44.6693 34.5353 45.6804C36.556 48.0678 37.262 48.3967 39.6479 48.1409C40.3539 48.0678 41.3156 48.0069 41.7781 48.0069C42.8494 48.0069 43.4458 47.7389 44.3709 46.8741C44.7483 46.5208 45.4787 45.8996 45.9778 45.4976C46.4768 45.1079 48.2662 43.3903 49.9339 41.685C51.6138 39.9797 53.391 38.2621 53.8901 37.8724C55.3873 36.6908 58.8322 33.4263 60.013 32.062C60.6216 31.3677 61.7537 30.2714 62.5206 29.6258C63.9569 28.4443 68.0348 24.5951 69.7268 22.841C70.299 22.2442 70.9076 21.428 71.3336 20.7094C71.711 20.0638 72.2588 19.2111 72.5631 18.8091L73.0987 18.0783L74.4499 17.7372L75.8011 17.4083L77.4931 15.6055C79.0877 13.9124 79.1973 13.7784 79.3068 13.1572C79.4529 12.3776 79.6842 7.2372 79.7329 3.9118C79.7572 1.45124 79.7085 1.1589 79.2216 0.781286C78.966 0.58639 71.4189 0.598571 68.6191 0.805648Z" fill="black"/>
<path d="M67.5844 40.9054C66.8296 41.0759 66.0506 41.3926 65.5028 41.7459C65.1741 41.9651 63.5552 43.5609 61.9118 45.2784C59.7694 47.544 58.6252 48.6525 57.7853 49.2616C56.2758 50.3822 53.5248 53.0864 52.2345 54.7186C51.1755 56.0707 49.9217 57.1548 47.9253 58.4216C47.4019 58.7505 46.5133 59.5179 45.8438 60.1879C44.7604 61.2964 44.5413 61.4669 42.5936 62.551C40.2808 63.8422 40.0495 63.9031 38.7836 63.5255C37.7854 63.2331 36.7142 62.6484 34.584 61.2476C32.5511 59.9199 32.1251 59.5301 30.9565 57.9344C29.9948 56.631 28.4732 55.145 27.2803 54.3167C26.6595 53.8781 25.6978 53.0011 24.6023 51.8439C23.6771 50.8573 22.2651 49.4808 21.4739 48.7743C20.6826 48.0678 19.6114 46.9593 19.088 46.3138C18.5524 45.6682 17.2864 44.2795 16.2518 43.232C14.6936 41.6241 14.3041 41.2952 13.8902 41.1856C13.5981 41.1125 10.9809 41.0394 7.47518 41.015L1.55921 40.9541L1.15751 41.2221C0.488008 41.685 0.414971 42.1113 0.524526 44.9008C0.573218 46.2407 0.621909 48.5916 0.621909 50.1386C0.634081 52.928 0.634081 52.9402 0.962746 53.5493C1.31576 54.2192 1.88788 54.8039 3.19036 55.8271C3.6651 56.1925 4.12767 56.5945 4.22505 56.7163C4.32243 56.8381 4.66327 57.0574 4.96759 57.1914C5.27191 57.3375 5.78317 57.6299 6.124 57.837C6.45267 58.044 7.07348 58.3242 7.5117 58.446C8.30293 58.6531 8.30293 58.6653 10.6766 61.1015C14.2919 64.8045 15.1684 65.7424 16.2518 67.0945C16.7995 67.7766 17.6151 68.6537 18.0655 69.0435C19.5871 70.359 20.2079 70.968 21.2061 72.1252C21.7538 72.7587 24.2249 75.2801 26.6716 77.7285C29.1305 80.1769 31.4555 82.5522 31.8329 83.0272C32.2103 83.4901 33.3302 84.7082 34.3283 85.7314C35.6673 87.0957 36.2881 87.6438 36.7142 87.8143C37.1646 88.0092 37.7245 88.0701 39.5261 88.1554C42.3502 88.2772 42.7154 88.2529 43.4092 87.9483C44.0787 87.656 44.5048 87.2662 45.649 85.8897C46.1237 85.3172 47.2315 84.1113 48.1079 83.2099C48.9843 82.3085 50.1042 81.0539 50.5912 80.4327C51.0902 79.8236 51.5285 79.312 51.5772 79.312C51.638 79.312 52.4658 78.569 53.4152 77.6554C54.3769 76.754 55.6063 75.6699 56.1419 75.2558C57.4566 74.2447 60.8163 70.9437 61.6806 69.8109C62.4718 68.7755 63.47 67.8132 64.9672 66.6194C65.5393 66.1687 66.3306 65.511 66.7444 65.1577C67.1461 64.8045 67.8765 64.1954 68.3512 63.8056C69.179 63.1357 69.2277 63.0748 69.2277 62.5997C69.2277 62.1368 69.3007 62.0272 70.0189 61.3207C70.445 60.9066 70.9684 60.261 71.1753 59.9077C71.3823 59.5423 71.6501 59.1525 71.7718 59.0429C71.9057 58.9211 72.7334 58.4704 73.6099 58.044C74.6202 57.5568 75.448 57.0574 75.8375 56.7041C76.1783 56.3996 76.7018 56.0098 77.0061 55.8393C77.9434 55.3033 78.7224 54.6699 79.0024 54.2192C79.2459 53.8172 79.2824 53.5493 79.4041 49.9559C79.4893 47.8486 79.6111 45.0348 79.6963 43.707C79.8302 41.4535 79.8302 41.2708 79.6232 41.0516C79.4285 40.8323 79.1972 40.8201 73.622 40.8323C70.4328 40.8445 67.7183 40.8689 67.5844 40.9054Z" fill="black"/>
</svg>
